# xmcd CD database file generated by OrangeCD 5.1
#
# Track frame offsets:
#	150
#	10137
#	22557
#	30866
#	40136
#	50445
#	59825
#	72142
#	82329
#	91846
#
# Disc length: 1357 seconds
#
# Revision: 1
# Processed by: cddbd v1.4PL0 Copyright (c) Steve Scherf et al.
# Submitted via: OrangeCD 5.1
#
DISCID=71054b0a
DTITLE=Johnny Cash - I Walk The Line
DYEAR=1995
DGENRE=Country
TTITLE0=Hey Porter
TTITLE1=Give My Love to Rose
TTITLE2=Guess Things Happen That Way
TTITLE3=Luther Played the Boogie
TTITLE4=I Could Never Be Ashamed of You
TTITLE5=Blue Train
TTITLE6=I Walk the Line
TTITLE7=The Ways of a Woman in Love
TTITLE8=Down the Street to 301
TTITLE9=Goodbye Little Darling
EXTD=
EXTT0=
EXTT1=
EXTT2=
EXTT3=
EXTT4=
EXTT5=
EXTT6=
EXTT7=
EXTT8=
EXTT9=
PLAYORDER=
